<svg xmlns="http://www.w3.org/2000/svg" xmlns:v="https://svgstorm.com"
viewBox = "0 0 250 250"
width="250"
height="250">
<g fill="None" fill-opacity="0.0" stroke="#000000" stroke-opacity="0.00" stroke-width="0.3"><path d="
M 0.00 109.00 
C 6.57 54.40 54.47 6.56 109.00 0.00
L 0.00 0.00
L 0.00 109.00 Z"/>
</g>
<g fill="None" fill-opacity="0.0" stroke="#FFFFFF" stroke-opacity="0.93" stroke-width="0.3"><path d="
M 0.00 109.00 
L 0.00 111.00
C 1.39 111.26 0.78 113.05 1.00 114.00
C 0.72 115.28 1.76 117.50 0.00 118.00
L 0.00 132.00
C 1.50 133.64 1.72 138.43 0.00 140.00
L 0.00 141.00
C 6.57 195.60 54.47 243.44 109.00 250.00
L 111.00 250.00
C 111.26 248.61 113.05 249.22 114.00 249.00
C 115.28 249.28 117.50 248.24 118.00 250.00
L 132.00 250.00
C 132.47 248.66 135.58 248.43 136.00 250.00
L 141.00 250.00
C 195.60 243.43 243.44 195.53 250.00 141.00
L 250.00 136.00
C 248.66 135.53 248.43 132.42 250.00 132.00
L 250.00 118.00
C 248.66 117.53 248.43 114.42 250.00 114.00
L 250.00 109.00
C 243.43 54.40 195.53 6.56 141.00 0.00
L 140.00 0.00
C 138.36 1.50 133.57 1.72 132.00 0.00
L 118.00 0.00
C 117.47 1.60 115.25 0.72 114.00 1.00
C 113.00 0.89 111.27 1.47 111.00 0.00
L 109.00 0.00
C 54.47 6.56 6.57 54.40 0.00 109.00
M 140.00 6.00 
C 202.22 13.32 253.20 75.55 243.67 139.67 C 237.15 202.55 174.24 253.01 110.33 243.67 C 47.45 237.15 -3.01 174.24 6.33 110.33 C 12.90 47.13 75.83 -2.68 140.00 6.00 Z"/>
</g>
<g fill="None" fill-opacity="0.0" stroke="#FFFFFF" stroke-opacity="0.37" stroke-width="0.3"><path d="
M 114.00 1.00 
C 113.81 0.91 114.00 0.00 114.00 0.00
L 111.00 0.00
C 111.27 1.47 113.00 0.89 114.00 1.00 Z"/>
</g>
<g fill="None" fill-opacity="0.0" stroke="#FFFFFF" stroke-opacity="0.67" stroke-width="0.3"><path d="
M 114.00 1.00 
C 115.25 0.72 117.47 1.60 118.00 0.00
L 114.00 0.00
C 114.00 0.00 113.81 0.91 114.00 1.00 Z"/>
</g>
<g fill="None" fill-opacity="0.0" stroke="#FFFFFF" stroke-opacity="0.49" stroke-width="0.3"><path d="
M 140.00 0.00 
L 132.00 0.00
C 133.57 1.72 138.36 1.50 140.00 0.00 Z"/>
</g>
<g fill="None" fill-opacity="0.0" stroke="#000000" stroke-opacity="0.00" stroke-width="0.3"><path d="
M 250.00 109.00 
L 250.00 0.00
L 141.00 0.00
C 195.53 6.56 243.43 54.40 250.00 109.00 Z"/>
</g>
<g fill="None" fill-opacity="0.0" stroke="#000000" stroke-opacity="1.00" stroke-width="0.3"><path d="
M 140.00 6.00 
C 75.83 -2.68 12.90 47.13 6.33 110.33 C -3.01 174.24 47.45 237.15 110.33 243.67 C 174.24 253.01 237.15 202.55 243.67 139.67 C 253.20 75.55 202.22 13.32 140.00 6.00
M 116.00 97.00 
C 129.28 73.43 118.35 45.47 126.00 21.00
C 129.77 27.78 129.82 39.51 132.98 48.02 C 135.97 65.89 127.60 83.90 116.00 97.00
M 138.00 143.00 
C 143.79 131.87 154.40 124.91 164.25 117.25 C 177.36 108.92 174.34 90.76 171.00 78.00
C 183.98 94.95 184.37 121.49 172.00 139.00
C 178.55 133.14 186.36 129.64 193.00 124.00
C 179.83 142.47 190.99 161.63 196.98 180.02 C 198.19 187.83 201.00 208.23 188.78 205.22 C 188.42 195.24 191.73 183.83 187.22 173.78 C 180.86 148.79 154.22 165.02 148.70 181.70 C 133.81 197.71 111.43 185.46 95.77 177.23 C 87.65 173.01 76.92 167.24 68.77 174.77 C 59.30 181.47 64.95 194.46 60.92 201.92 C 49.74 200.50 51.66 183.27 52.78 174.78 C 58.52 137.53 107.99 121.73 108.00 82.00
C 114.86 104.07 95.50 124.15 98.00 145.00
C 100.45 114.80 134.32 99.42 142.32 71.32 C 150.06 54.84 131.57 38.87 141.00 23.00
C 138.22 44.51 164.10 59.70 159.67 82.67 C 156.97 104.30 138.63 120.61 138.00 143.00
M 149.00 120.00 
C 154.87 108.79 163.89 98.25 165.00 85.00
C 169.76 98.75 163.29 115.09 149.00 120.00 Z"/>
</g>
<g fill="None" fill-opacity="0.0" stroke="#FFFFFF" stroke-opacity="1.00" stroke-width="0.3"><path d="
M 116.00 97.00 
C 127.60 83.90 135.97 65.89 132.98 48.02 C 129.82 39.51 129.77 27.78 126.00 21.00
C 118.35 45.47 129.28 73.43 116.00 97.00 Z"/>
</g>
<g fill="None" fill-opacity="0.0" stroke="#FEFEFE" stroke-opacity="1.00" stroke-width="0.3"><path d="
M 138.00 143.00 
C 138.63 120.61 156.97 104.30 159.67 82.67 C 164.10 59.70 138.22 44.51 141.00 23.00
C 131.57 38.87 150.06 54.84 142.32 71.32 C 134.32 99.42 100.45 114.80 98.00 145.00
C 95.50 124.15 114.86 104.07 108.00 82.00
C 107.99 121.73 58.52 137.53 52.78 174.78 C 51.66 183.27 49.74 200.50 60.92 201.92 C 64.95 194.46 59.30 181.47 68.77 174.77 C 76.92 167.24 87.65 173.01 95.77 177.23 C 111.43 185.46 133.81 197.71 148.70 181.70 C 154.22 165.02 180.86 148.79 187.22 173.78 C 191.73 183.83 188.42 195.24 188.78 205.22 C 201.00 208.23 198.19 187.83 196.98 180.02 C 190.99 161.63 179.83 142.47 193.00 124.00
C 186.36 129.64 178.55 133.14 172.00 139.00
C 184.37 121.49 183.98 94.95 171.00 78.00
C 174.34 90.76 177.36 108.92 164.25 117.25 C 154.40 124.91 143.79 131.87 138.00 143.00 Z"/>
</g>
<g fill="None" fill-opacity="0.0" stroke="#FFFFFF" stroke-opacity="1.00" stroke-width="0.3"><path d="
M 149.00 120.00 
C 163.29 115.09 169.76 98.75 165.00 85.00
C 163.89 98.25 154.87 108.79 149.00 120.00 Z"/>
</g>
<g fill="None" fill-opacity="0.0" stroke="#FFFFFF" stroke-opacity="0.37" stroke-width="0.3"><path d="
M 0.00 114.00 
C 0.50 114.00 1.00 114.00 1.00 114.00
C 0.78 113.05 1.39 111.26 0.00 111.00
L 0.00 114.00 Z"/>
</g>
<g fill="None" fill-opacity="0.0" stroke="#FFFFFF" stroke-opacity="0.67" stroke-width="0.3"><path d="
M 0.00 118.00 
C 1.76 117.50 0.72 115.28 1.00 114.00
C 1.00 114.00 0.50 114.00 0.00 114.00
L 0.00 118.00 Z"/>
</g>
<g fill="None" fill-opacity="0.0" stroke="#FFFFFF" stroke-opacity="0.67" stroke-width="0.3"><path d="
M 250.00 118.00 
L 250.00 114.00
C 248.43 114.42 248.66 117.53 250.00 118.00 Z"/>
</g>
<g fill="None" fill-opacity="0.0" stroke="#FFFFFF" stroke-opacity="0.49" stroke-width="0.3"><path d="
M 0.00 140.00 
C 1.72 138.43 1.50 133.64 0.00 132.00
L 0.00 140.00 Z"/>
</g>
<g fill="None" fill-opacity="0.0" stroke="#FFFFFF" stroke-opacity="0.67" stroke-width="0.3"><path d="
M 250.00 136.00 
L 250.00 132.00
C 248.43 132.42 248.66 135.53 250.00 136.00 Z"/>
</g>
<g fill="None" fill-opacity="0.0" stroke="#000000" stroke-opacity="0.00" stroke-width="0.3"><path d="
M 0.00 250.00 
L 109.00 250.00
C 54.47 243.44 6.57 195.60 0.00 141.00
L 0.00 250.00 Z"/>
</g>
<g fill="None" fill-opacity="0.0" stroke="#000000" stroke-opacity="0.00" stroke-width="0.3"><path d="
M 141.00 250.00 
L 250.00 250.00
L 250.00 141.00
C 243.44 195.53 195.60 243.43 141.00 250.00 Z"/>
</g>
<g fill="None" fill-opacity="0.0" stroke="#FFFFFF" stroke-opacity="0.37" stroke-width="0.3"><path d="
M 111.00 250.00 
L 114.00 250.00
C 114.00 249.50 114.00 249.00 114.00 249.00
C 113.05 249.22 111.26 248.61 111.00 250.00 Z"/>
</g>
<g fill="None" fill-opacity="0.0" stroke="#FFFFFF" stroke-opacity="0.67" stroke-width="0.3"><path d="
M 114.00 250.00 
L 118.00 250.00
C 117.50 248.24 115.28 249.28 114.00 249.00
C 114.00 249.00 114.00 249.50 114.00 250.00 Z"/>
</g>
<g fill="None" fill-opacity="0.0" stroke="#FFFFFF" stroke-opacity="0.67" stroke-width="0.3"><path d="
M 132.00 250.00 
L 136.00 250.00
C 135.58 248.43 132.47 248.66 132.00 250.00 Z"/>
</g>
<g fill="#000000" fill-opacity="0.00" stroke="None">
<path d="
M 0.00 109.00 
C 6.57 54.40 54.47 6.56 109.00 0.00
L 0.00 0.00
L 0.00 109.00 Z"/>
</g>
<g fill="#FFFFFF" fill-opacity="0.93" stroke="None">
<path d="
M 0.00 109.00 
L 0.00 111.00
C 1.39 111.26 0.78 113.05 1.00 114.00
C 0.72 115.28 1.76 117.50 0.00 118.00
L 0.00 132.00
C 1.50 133.64 1.72 138.43 0.00 140.00
L 0.00 141.00
C 6.57 195.60 54.47 243.44 109.00 250.00
L 111.00 250.00
C 111.26 248.61 113.05 249.22 114.00 249.00
C 115.28 249.28 117.50 248.24 118.00 250.00
L 132.00 250.00
C 132.47 248.66 135.58 248.43 136.00 250.00
L 141.00 250.00
C 195.60 243.43 243.44 195.53 250.00 141.00
L 250.00 136.00
C 248.66 135.53 248.43 132.42 250.00 132.00
L 250.00 118.00
C 248.66 117.53 248.43 114.42 250.00 114.00
L 250.00 109.00
C 243.43 54.40 195.53 6.56 141.00 0.00
L 140.00 0.00
C 138.36 1.50 133.57 1.72 132.00 0.00
L 118.00 0.00
C 117.47 1.60 115.25 0.72 114.00 1.00
C 113.00 0.89 111.27 1.47 111.00 0.00
L 109.00 0.00
C 54.47 6.56 6.57 54.40 0.00 109.00
M 140.00 6.00 
C 202.22 13.32 253.20 75.55 243.67 139.67 C 237.15 202.55 174.24 253.01 110.33 243.67 C 47.45 237.15 -3.01 174.24 6.33 110.33 C 12.90 47.13 75.83 -2.68 140.00 6.00 Z"/>
</g>
<g fill="#FFFFFF" fill-opacity="0.37" stroke="None">
<path d="
M 114.00 1.00 
C 113.81 0.91 114.00 0.00 114.00 0.00
L 111.00 0.00
C 111.27 1.47 113.00 0.89 114.00 1.00 Z"/>
</g>
<g fill="#FFFFFF" fill-opacity="0.67" stroke="None">
<path d="
M 114.00 1.00 
C 115.25 0.72 117.47 1.60 118.00 0.00
L 114.00 0.00
C 114.00 0.00 113.81 0.91 114.00 1.00 Z"/>
</g>
<g fill="#FFFFFF" fill-opacity="0.49" stroke="None">
<path d="
M 140.00 0.00 
L 132.00 0.00
C 133.57 1.72 138.36 1.50 140.00 0.00 Z"/>
</g>
<g fill="#000000" fill-opacity="0.00" stroke="None">
<path d="
M 250.00 109.00 
L 250.00 0.00
L 141.00 0.00
C 195.53 6.56 243.43 54.40 250.00 109.00 Z"/>
</g>
<g fill="#000000" fill-opacity="1.00" stroke="None">
<path d="
M 140.00 6.00 
C 75.83 -2.68 12.90 47.13 6.33 110.33 C -3.01 174.24 47.45 237.15 110.33 243.67 C 174.24 253.01 237.15 202.55 243.67 139.67 C 253.20 75.55 202.22 13.32 140.00 6.00
M 116.00 97.00 
C 129.28 73.43 118.35 45.47 126.00 21.00
C 129.77 27.78 129.82 39.51 132.98 48.02 C 135.97 65.89 127.60 83.90 116.00 97.00
M 138.00 143.00 
C 143.79 131.87 154.40 124.91 164.25 117.25 C 177.36 108.92 174.34 90.76 171.00 78.00
C 183.98 94.95 184.37 121.49 172.00 139.00
C 178.55 133.14 186.36 129.64 193.00 124.00
C 179.83 142.47 190.99 161.63 196.98 180.02 C 198.19 187.83 201.00 208.23 188.78 205.22 C 188.42 195.24 191.73 183.83 187.22 173.78 C 180.86 148.79 154.22 165.02 148.70 181.70 C 133.81 197.71 111.43 185.46 95.77 177.23 C 87.65 173.01 76.92 167.24 68.77 174.77 C 59.30 181.47 64.95 194.46 60.92 201.92 C 49.74 200.50 51.66 183.27 52.78 174.78 C 58.52 137.53 107.99 121.73 108.00 82.00
C 114.86 104.07 95.50 124.15 98.00 145.00
C 100.45 114.80 134.32 99.42 142.32 71.32 C 150.06 54.84 131.57 38.87 141.00 23.00
C 138.22 44.51 164.10 59.70 159.67 82.67 C 156.97 104.30 138.63 120.61 138.00 143.00
M 149.00 120.00 
C 154.87 108.79 163.89 98.25 165.00 85.00
C 169.76 98.75 163.29 115.09 149.00 120.00 Z"/>
</g>
<g fill="#FFFFFF" fill-opacity="1.00" stroke="None">
<path d="
M 116.00 97.00 
C 127.60 83.90 135.97 65.89 132.98 48.02 C 129.82 39.51 129.77 27.78 126.00 21.00
C 118.35 45.47 129.28 73.43 116.00 97.00 Z"/>
</g>
<g fill="#FEFEFE" fill-opacity="1.00" stroke="None">
<path d="
M 138.00 143.00 
C 138.63 120.61 156.97 104.30 159.67 82.67 C 164.10 59.70 138.22 44.51 141.00 23.00
C 131.57 38.87 150.06 54.84 142.32 71.32 C 134.32 99.42 100.45 114.80 98.00 145.00
C 95.50 124.15 114.86 104.07 108.00 82.00
C 107.99 121.73 58.52 137.53 52.78 174.78 C 51.66 183.27 49.74 200.50 60.92 201.92 C 64.95 194.46 59.30 181.47 68.77 174.77 C 76.92 167.24 87.65 173.01 95.77 177.23 C 111.43 185.46 133.81 197.71 148.70 181.70 C 154.22 165.02 180.86 148.79 187.22 173.78 C 191.73 183.83 188.42 195.24 188.78 205.22 C 201.00 208.23 198.19 187.83 196.98 180.02 C 190.99 161.63 179.83 142.47 193.00 124.00
C 186.36 129.64 178.55 133.14 172.00 139.00
C 184.37 121.49 183.98 94.95 171.00 78.00
C 174.34 90.76 177.36 108.92 164.25 117.25 C 154.40 124.91 143.79 131.87 138.00 143.00 Z"/>
</g>
<g fill="#FFFFFF" fill-opacity="1.00" stroke="None">
<path d="
M 149.00 120.00 
C 163.29 115.09 169.76 98.75 165.00 85.00
C 163.89 98.25 154.87 108.79 149.00 120.00 Z"/>
</g>
<g fill="#FFFFFF" fill-opacity="0.37" stroke="None">
<path d="
M 0.00 114.00 
C 0.50 114.00 1.00 114.00 1.00 114.00
C 0.78 113.05 1.39 111.26 0.00 111.00
L 0.00 114.00 Z"/>
</g>
<g fill="#FFFFFF" fill-opacity="0.67" stroke="None">
<path d="
M 0.00 118.00 
C 1.76 117.50 0.72 115.28 1.00 114.00
C 1.00 114.00 0.50 114.00 0.00 114.00
L 0.00 118.00 Z"/>
</g>
<g fill="#FFFFFF" fill-opacity="0.67" stroke="None">
<path d="
M 250.00 118.00 
L 250.00 114.00
C 248.43 114.42 248.66 117.53 250.00 118.00 Z"/>
</g>
<g fill="#FFFFFF" fill-opacity="0.49" stroke="None">
<path d="
M 0.00 140.00 
C 1.72 138.43 1.50 133.64 0.00 132.00
L 0.00 140.00 Z"/>
</g>
<g fill="#FFFFFF" fill-opacity="0.67" stroke="None">
<path d="
M 250.00 136.00 
L 250.00 132.00
C 248.43 132.42 248.66 135.53 250.00 136.00 Z"/>
</g>
<g fill="#000000" fill-opacity="0.00" stroke="None">
<path d="
M 0.00 250.00 
L 109.00 250.00
C 54.47 243.44 6.57 195.60 0.00 141.00
L 0.00 250.00 Z"/>
</g>
<g fill="#000000" fill-opacity="0.00" stroke="None">
<path d="
M 141.00 250.00 
L 250.00 250.00
L 250.00 141.00
C 243.44 195.53 195.60 243.43 141.00 250.00 Z"/>
</g>
<g fill="#FFFFFF" fill-opacity="0.37" stroke="None">
<path d="
M 111.00 250.00 
L 114.00 250.00
C 114.00 249.50 114.00 249.00 114.00 249.00
C 113.05 249.22 111.26 248.61 111.00 250.00 Z"/>
</g>
<g fill="#FFFFFF" fill-opacity="0.67" stroke="None">
<path d="
M 114.00 250.00 
L 118.00 250.00
C 117.50 248.24 115.28 249.28 114.00 249.00
C 114.00 249.00 114.00 249.50 114.00 250.00 Z"/>
</g>
<g fill="#FFFFFF" fill-opacity="0.67" stroke="None">
<path d="
M 132.00 250.00 
L 136.00 250.00
C 135.58 248.43 132.47 248.66 132.00 250.00 Z"/>
</g>
</svg>